#!OML:ASF C:\Vicon Data\Big\jianyuan-12\jianyuan\Session 1\Capture.male.ASF
:FULLY-SPECIFIED
:DEGREES
112
root -8.316818 17.081571 -14.818004 6.167845 5.005762 1.014831
lowerback -9.267300 1.988653 -3.625868 
upperback 2.370612 3.200432 -1.609212 
thorax 7.607679 1.427112 0.837044 
lowerneck -4.014655 -6.807292 -4.848360 
upperneck 6.608785 -9.550641 8.853114 
head 3.283156 -4.578140 3.027366 
rclavicle 0.000000 0.000000 
rhumerus -20.681569 -18.864413 -87.606128 
rradius 44.369917 
rwrist 24.401984 
rhand -18.678543 -5.376659 
rfingers 0.000000 
rthumb 7.615470 -35.219555 
lclavicle 0.000000 0.000000 
lhumerus -45.573641 34.070116 65.286818 
lradius 27.530737 
lwrist -51.733929 
lhand -7.889623 4.403966 
lfingers 0.000000 
lthumb 18.015088 33.589659 
rfemur -0.673446 0.894368 22.712929 
rtibia 23.206203 
rfoot -29.245058 -3.792996 
rtoes -8.595902 
lfemur -29.867559 -5.216232 -17.793456 
ltibia 9.312642 
lfoot -14.814539 8.189624 
ltoes -21.865954 
113
root -8.298952 17.075079 -14.739593 6.210622 4.972490 1.011575
lowerback -9.347345 2.034487 -3.613112 
upperback 2.350778 3.264813 -1.629146 
thorax 7.632105 1.459105 0.821693 
lowerneck -4.013399 -6.849527 -4.717024 
upperneck 6.649234 -9.609506 8.736692 
head 3.287253 -4.607436 2.967905 
rclavicle 0.000000 0.000000 
rhumerus -20.733081 -18.951985 -87.639431 
rradius 44.443382 
rwrist 23.935438 
rhand -18.761909 -5.540002 
rfingers 0.000000 
rthumb 7.534987 -35.385795 
lclavicle 0.000000 0.000000 
lhumerus -45.640594 34.090420 65.230873 
lradius 27.517670 
lwrist -51.930796 
lhand -7.778266 4.279186 
lfingers 0.000000 
lthumb 18.122200 33.454925 
rfemur -0.443724 0.886004 22.680070 
rtibia 23.247064 
rfoot -29.176772 -3.782822 
rtoes -8.967521 
lfemur -29.951852 -5.199459 -17.899667 
ltibia 9.462835 
lfoot -14.840070 8.815436 
ltoes -23.201641 
114
root -8.282927 17.064675 -14.659781 6.312606 4.907738 0.945444
lowerback -9.491700 2.050540 -3.556849 
upperback 2.300801 3.284208 -1.612607 
thorax 7.662916 1.470622 0.815809 
lowerneck -3.932147 -6.818258 -4.906824 
upperneck 6.639714 -9.580031 8.981782 
head 3.289907 -4.592066 3.075862 
rclavicle 0.000000 0.000000 
rhumerus -20.798840 -18.926559 -87.671794 
rradius 44.441413 
rwrist 23.669761 
rhand -18.902189 -5.629545 
rfingers 0.000000 
rthumb 7.399580 -35.480138 
lclavicle 0.000000 0.000000 
lhumerus -45.782347 34.207907 65.090562 
lradius 27.437767 
lwrist -52.211736 
lhand -7.913937 4.299818 
lfingers 0.000000 
lthumb 17.991642 33.487592 
rfemur -0.316457 0.845880 22.695947 
rtibia 23.318354 
rfoot -29.119274 -3.759215 
rtoes -9.505418 
lfemur -30.113139 -5.133553 -17.925961 
ltibia 9.698000 
lfoot -14.969726 9.231138 
ltoes -23.046245 
115
root -8.266586 17.057623 -14.578474 6.341881 4.832421 0.922688
lowerback -9.563675 2.056261 -3.563402 
upperback 2.279499 3.293205 -1.573493 
thorax 7.678415 1.473725 0.864722 
lowerneck -3.921870 -6.816219 -4.986551 
upperneck 6.664842 -9.575721 8.999573 
head 3.300035 -4.590909 3.093947 
rclavicle 0.000000 0.000000 
rhumerus -20.796622 -18.982812 -87.633032 
rradius 44.285663 
rwrist 23.749011 
rhand -18.970979 -5.584884 
rfingers 0.000000 
rthumb 7.333170 -35.437807 
lclavicle 0.000000 0.000000 
lhumerus -45.881409 34.298258 65.015367 
lradius 27.373441 
lwrist -52.340916 
lhand -8.019347 4.409847 
lfingers 0.000000 
lthumb 17.890235 33.606959 
rfemur -0.107417 0.803255 22.662581 
rtibia 23.419009 
rfoot -29.065717 -3.723621 
rtoes -9.957928 
lfemur -30.203573 -5.056482 -17.989310 
ltibia 10.015550 
lfoot -15.232710 9.510363 
ltoes -22.199475 
116
root -8.249747 17.047864 -14.494922 6.373253 4.764420 0.901595
lowerback -9.655342 2.070198 -3.565609 
upperback 2.265109 3.315301 -1.557670 
thorax 7.713903 1.483340 0.889701 
lowerneck -3.963934 -6.810446 -4.960773 
upperneck 6.746969 -9.568760 8.932747 
head 3.326597 -4.586392 3.067536 
rclavicle 0.000000 0.000000 
rhumerus -20.845091 -19.052834 -87.619156 
rradius 44.204142 
rwrist 23.681243 
rhand -18.991841 -5.577207 
rfingers 0.000000 
rthumb 7.313021 -35.430807 
lclavicle 0.000000 0.000000 
lhumerus -45.930488 34.392520 64.881949 
lradius 27.264926 
lwrist -52.518993 
lhand -8.002144 4.368754 
lfingers 0.000000 
lthumb 17.906777 33.564332 
rfemur 0.119700 0.787448 22.626731 
rtibia 23.509004 
rfoot -29.039604 -3.650916 
rtoes -10.095521 
lfemur -30.320839 -4.863196 -18.152796 
ltibia 10.447627 
lfoot -15.370633 9.750281 
ltoes -22.209427 
117
root -8.231570 17.038971 -14.412286 6.457971 4.700951 0.838444
lowerback -9.800444 2.055689 -3.521850 
upperback 2.226513 3.293398 -1.507522 
thorax 7.756080 1.473063 0.920158 
lowerneck -3.855834 -6.766427 -5.119870 
upperneck 6.677902 -9.506397 9.040431 
head 3.296189 -4.559874 3.133417 
rclavicle 0.000000 0.000000 
rhumerus -20.913551 -19.058298 -87.563614 
rradius 44.119861 
rwrist 23.751017 
rhand -19.090202 -5.593281 
rfingers 0.000000 
rthumb 7.218092 -35.450137 
lclavicle 0.000000 0.000000 
lhumerus -46.137566 34.624159 64.714050 
lradius 27.210315 
lwrist -52.731272 
lhand -8.034545 4.376914 
lfingers 0.000000 
lthumb 17.875612 33.575392 
rfemur 0.285213 0.813512 22.637422 
rtibia 23.579531 
rfoot -29.009276 -3.620017 
rtoes -10.638162 
lfemur -30.520900 -4.409995 -18.429234 
ltibia 10.986732 
lfoot -15.252079 9.828297 
ltoes -23.552973 
118
root -8.212833 17.033161 -14.326761 6.501947 4.565824 0.880435
lowerback -9.914278 2.059333 -3.609318 
upperback 2.207239 3.311546 -1.465181 
thorax 7.793004 1.476059 1.021013 
lowerneck -3.877371 -6.765237 -5.200748 
upperneck 6.716264 -9.491029 8.940901 
head 3.309008 -4.555538 3.115851 
rclavicle 0.000000 0.000000 
rhumerus -21.079689 -19.005444 -87.443470 
rradius 44.116066 
rwrist 23.962371 
rhand -18.962371 -5.641805 
rfingers 0.000000 
rthumb 7.341425 -35.494433 
lclavicle 0.000000 0.000000 
lhumerus -46.214403 34.821239 64.646379 
lradius 27.154163 
lwrist -52.721675 
lhand -7.977091 4.515500 
lfingers 0.000000 
lthumb 17.930880 33.708873 
rfemur 0.495386 0.766617 22.503882 
rtibia 23.686680 
rfoot -28.765523 -3.488332 
rtoes -11.128362 
lfemur -30.616982 -4.224898 -18.641263 
ltibia 11.551147 
lfoot -15.479740 9.994098 
ltoes -22.873699 
119
root -8.193995 17.022019 -14.240138 6.435861 4.441153 0.808881
lowerback -9.927361 2.079596 -3.532600 
upperback 2.212871 3.329404 -1.456932 
thorax 7.809480 1.487866 0.990479 
lowerneck -3.930689 -6.751475 -5.094901 
upperneck 6.795221 -9.469833 8.789099 
head 3.327616 -4.544707 3.051862 
rclavicle 0.000000 0.000000 
rhumerus -21.109025 -19.205246 -87.457194 
rradius 43.924428 
rwrist 24.334877 
rhand -18.915800 -5.548795 
rfingers 0.000000 
rthumb 7.386384 -35.399844 
lclavicle 0.000000 0.000000 
lhumerus -46.348317 35.027049 64.419732 
lradius 27.111793 
lwrist -52.890882 
lhand -7.933544 4.492451 
lfingers 0.000000 
lthumb 17.972755 33.681979 
rfemur 0.847855 0.821026 22.512334 
rtibia 23.758630 
rfoot -28.679563 -3.457656 
rtoes -11.706593 
lfemur -30.683858 -3.889879 -18.833230 
ltibia 12.234526 
lfoot -15.472288 10.041498 
ltoes -22.797120 
120
root -8.174449 17.018884 -14.153939 6.506311 4.307204 0.832418
lowerback -10.065478 2.136580 -3.586787 
upperback 2.166714 3.418700 -1.476481 
thorax 7.834284 1.528786 1.019474 
lowerneck -3.962862 -6.774698 -5.036469 
upperneck 6.946339 -9.514127 8.753525 
head 3.376921 -4.563390 3.026005 
rclavicle 0.000000 0.000000 
rhumerus -21.255396 -19.620094 -87.332890 
rradius 43.787793 
rwrist 24.954149 
rhand -18.758851 -5.399166 
rfingers 0.000000 
rthumb 7.537913 -35.244836 
lclavicle 0.000000 0.000000 
lhumerus -46.495270 35.178625 64.214312 
lradius 27.086726 
lwrist -53.262519 
lhand -7.859982 4.354211 
lfingers 0.000000 
lthumb 18.043600 33.537236 
rfemur 1.053059 0.893288 22.405515 
rtibia 23.805422 
rfoot -28.539254 -3.424440 
rtoes -12.146010 
lfemur -30.813824 -3.711737 -19.024468 
ltibia 12.883617 
lfoot -15.441622 10.086873 
ltoes -23.312877 
